<?xml version="1.0" standalone="no"?>
<!DOCTYPE svg PUBLIC "-//W3C//DTD SVG 20010904//EN"
 "http://www.w3.org/TR/2001/REC-SVG-20010904/DTD/svg10.dtd">
<svg version="1.0" xmlns="http://www.w3.org/2000/svg"
 width="601.000000pt" height="699.000000pt" viewBox="0 0 601.000000 699.000000"
 preserveAspectRatio="xMidYMid meet">

<g transform="translate(0.000000,699.000000) scale(0.100000,-0.100000)"
fill="#000000" stroke="none">
<path d="M2855 6610 l-30 -8 30 -2 c17 -1 -6 -7 -50 -11 -44 -5 -87 -12 -95
-16 -8 -3 -26 -5 -40 -4 -41 3 -80 -16 -80 -38 0 -14 -5 -19 -15 -15 -8 4 -15
12 -15 20 0 18 -9 18 -72 -6 -29 -10 -84 -26 -122 -35 -77 -18 -243 -91 -232
-103 7 -7 11 -8 37 -11 5 0 7 -6 4 -11 -4 -6 -11 -8 -16 -5 -11 8 -79 -16 -79
-27 0 -4 -8 -8 -18 -8 -24 0 -76 -26 -92 -45 -7 -8 -18 -15 -24 -15 -19 0
-151 -100 -151 -115 0 -24 -56 -76 -106 -100 -56 -25 -89 -52 -89 -71 0 -7 -5
-14 -11 -16 -7 -2 -14 -21 -16 -42 -2 -22 -9 -48 -15 -60 -6 -12 -14 -34 -18
-51 -4 -20 -12 -29 -22 -27 -22 3 -113 -147 -129 -213 -6 -28 -25 -78 -40
-113 -18 -41 -35 -107 -49 -195 -11 -72 -27 -170 -35 -217 -32 -181 -37 -242
-36 -433 1 -257 27 -476 68 -569 15 -35 33 -51 33 -30 0 5 26 14 58 21 31 7
66 15 77 17 17 5 18 3 5 -6 -12 -9 -9 -10 15 -5 98 22 282 55 355 64 131 15
330 23 330 12 0 -11 -71 -21 -160 -22 -178 -3 -379 -31 -527 -75 -14 -4 -23
-2 -23 5 0 6 -7 11 -16 11 -14 0 -15 -2 -3 -17 13 -16 12 -17 -4 -4 -14 11
-25 12 -57 2 -33 -10 -40 -16 -40 -36 0 -17 -6 -25 -17 -25 -9 0 -24 -7 -34
-16 -9 -8 -28 -16 -42 -17 -47 -4 -67 -41 -67 -123 0 -40 4 -76 10 -79 5 -3
10 -18 10 -33 0 -15 7 -35 14 -45 13 -17 14 -14 14 26 0 65 19 127 37 121 8
-4 16 -20 17 -38 2 -41 2 -41 35 -172 10 -40 13 -80 9 -115 -14 -115 -15 -274
-4 -309 11 -34 12 -34 19 -10 7 24 7 24 8 2 1 -30 30 -41 47 -17 20 27 17 58
-7 73 -19 12 -20 19 -14 115 4 63 3 112 -3 129 -9 21 -8 27 4 32 9 3 19 4 23
1 11 -6 31 111 31 179 0 48 2 55 14 44 7 -7 12 -18 9 -24 -2 -7 0 -15 6 -19 6
-3 11 -23 11 -43 1 -45 22 -77 46 -68 13 5 15 2 10 -16 -11 -39 -28 -133 -52
-298 -9 -58 -7 -497 2 -512 5 -7 9 -33 10 -58 4 -74 22 -178 38 -213 8 -17 18
-48 21 -67 14 -66 140 -296 204 -372 133 -156 173 -211 167 -230 -3 -13 3 -33
16 -51 l21 -29 -22 14 c-15 9 -26 10 -38 2 -27 -17 -27 -33 0 -45 23 -10 25
-16 22 -63 -4 -69 -3 -66 -21 -66 -9 0 -12 -5 -8 -11 4 -6 9 -35 11 -63 7 -88
8 -94 15 -102 5 -4 8 -17 8 -29 0 -11 4 -25 10 -31 5 -5 15 -48 21 -94 11 -89
17 -110 57 -199 32 -72 125 -309 174 -446 21 -60 47 -119 57 -130 10 -11 16
-26 14 -32 -3 -8 5 -13 21 -13 16 0 32 -9 42 -25 23 -35 38 -32 30 8 -6 31
-19 187 -18 217 1 8 6 41 11 73 11 69 8 146 -6 155 -5 4 -13 22 -16 41 -4 18
-23 56 -42 83 -27 36 -36 60 -37 94 -2 25 -8 50 -15 56 -7 6 -13 19 -13 29 0
11 -4 19 -10 19 -5 0 -10 18 -10 40 0 29 4 40 15 40 8 0 15 -7 15 -15 0 -21
13 -19 28 5 7 12 8 20 2 20 -5 0 -10 4 -10 10 0 11 51 -6 61 -21 5 -9 39 -20
68 -21 8 -1 16 -9 18 -18 2 -9 18 -24 34 -34 16 -9 34 -26 39 -37 6 -10 17
-19 26 -19 8 0 17 -7 20 -15 4 -8 17 -15 30 -15 13 0 24 -6 24 -13 0 -20 78
-51 94 -38 14 12 112 -20 100 -32 -4 -4 -5 -7 -3 -7 2 0 31 -4 63 -10 51 -8
63 -7 79 7 15 14 20 15 27 3 7 -11 17 -12 64 0 30 7 57 19 60 26 3 9 21 14 44
14 22 0 58 7 81 15 22 8 41 12 41 8 0 -3 11 2 25 11 13 9 33 16 45 16 31 0
110 23 110 33 0 4 5 5 10 2 12 -7 40 12 40 26 0 5 -9 9 -20 9 -11 0 -20 4 -20
10 0 6 9 6 26 0 22 -9 27 -7 31 10 6 24 23 27 23 4 0 -11 6 -15 20 -11 10 3
21 0 23 -7 2 -6 8 -8 12 -3 5 4 3 13 -3 19 -7 7 -12 21 -12 31 0 17 5 19 38
14 48 -8 68 3 53 31 -9 17 -8 19 9 15 11 -3 27 0 35 7 8 7 15 9 15 6 0 -4 7 0
16 8 8 9 13 20 10 25 -3 5 4 11 16 14 12 4 25 1 29 -5 8 -13 69 45 69 66 0 17
27 29 35 16 4 -6 12 -10 18 -9 9 0 8 2 -1 6 -17 7 -5 23 19 23 10 0 19 3 19 8
0 17 51 61 65 55 14 -5 13 -7 -1 -18 -12 -8 -14 -14 -6 -19 17 -10 15 -36 -2
-36 -8 0 -17 7 -20 16 -4 9 -9 14 -13 11 -10 -10 18 -37 38 -37 11 0 21 9 25
24 3 15 11 23 19 20 7 -3 15 3 19 12 7 17 -7 39 -24 39 -6 0 -10 5 -10 10 1 6
9 9 20 7 10 -2 21 2 25 8 3 6 -3 10 -14 10 -12 0 -21 4 -21 9 0 12 27 22 43
15 10 -4 13 4 10 28 -1 18 0 27 3 21 10 -21 24 -14 24 11 0 13 -6 26 -12 29
-7 2 -1 8 15 12 22 6 27 13 27 38 0 20 10 39 30 59 17 15 30 31 30 34 0 9 86
128 119 164 17 19 35 46 38 60 3 14 9 27 12 30 30 25 86 185 75 213 -7 19 -24
23 -24 7 0 -6 -16 -18 -35 -27 -19 -9 -35 -20 -35 -25 0 -4 -7 -8 -15 -8 -8 0
-15 -9 -15 -19 0 -11 -5 -23 -10 -26 -6 -4 -8 -11 -4 -16 3 -6 -3 -13 -15 -16
-18 -5 -19 -7 -5 -21 15 -14 15 -17 0 -27 -9 -7 -16 -17 -16 -24 0 -6 -15 -11
-35 -11 -34 0 -46 -12 -25 -25 16 -10 12 -35 -6 -35 -10 0 -14 -6 -11 -14 4
-11 1 -13 -10 -9 -11 5 -14 1 -10 -13 5 -14 -2 -23 -28 -36 -19 -10 -35 -13
-35 -8 0 6 -4 10 -10 10 -5 0 -10 -7 -10 -15 0 -8 -7 -15 -16 -15 -20 0 -8
-19 20 -30 21 -9 21 -9 -2 -9 -15 -1 -26 -8 -29 -21 -3 -11 -12 -20 -19 -20
-8 0 -20 -11 -26 -25 -12 -27 -24 -32 -31 -12 -6 17 -24 -2 -32 -35 -6 -22 -4
-28 9 -28 9 0 16 -4 16 -10 0 -6 -19 -7 -45 -4 -40 4 -45 3 -45 -16 0 -11 -7
-20 -15 -20 -8 0 -15 -7 -15 -16 0 -9 -9 -18 -20 -21 -11 -3 -20 -11 -20 -19
0 -7 -9 -18 -20 -24 -10 -6 -34 -32 -51 -58 -18 -26 -41 -56 -51 -67 -10 -11
-24 -29 -32 -39 -7 -11 -23 -20 -36 -21 -15 -1 -30 -13 -40 -33 -10 -17 -20
-29 -23 -25 -4 3 -20 7 -36 8 -20 2 -28 -1 -25 -10 3 -7 -3 -16 -13 -19 -10
-4 -19 -3 -21 2 -4 12 -105 2 -114 -12 -6 -8 -10 -8 -15 0 -13 18 -45 25 -59
13 -7 -6 -19 -7 -26 -3 -7 5 -27 9 -45 11 -25 1 -31 -2 -26 -14 4 -11 0 -14
-18 -12 -13 1 -32 -1 -42 -6 -9 -4 -25 -4 -35 0 -9 5 -25 7 -34 6 -12 -1 -16
3 -12 12 5 14 -34 32 -45 22 -2 -3 1 -5 7 -5 7 0 12 -9 12 -20 0 -11 -7 -20
-15 -20 -8 0 -15 9 -15 19 0 14 -9 20 -35 23 -19 2 -35 1 -35 -3 0 -3 -11 -4
-25 -1 -14 2 -25 8 -25 13 0 5 -8 9 -17 9 -14 0 -15 -2 -4 -9 10 -6 10 -10 1
-16 -6 -4 -19 0 -29 9 -20 18 -36 21 -26 6 3 -5 0 -10 -8 -10 -7 0 -20 11 -27
25 -7 14 -20 25 -27 25 -21 0 -63 31 -63 46 0 7 -9 18 -20 24 -11 6 -20 15
-20 21 0 6 4 8 8 5 5 -3 19 6 30 19 14 16 32 25 52 25 23 0 31 5 36 25 4 18
13 25 29 25 38 0 51 80 13 81 l-23 0 23 9 c12 6 22 18 22 30 0 11 4 20 9 20 5
0 11 7 15 15 4 12 0 14 -21 9 -22 -6 -25 -4 -20 10 4 10 7 20 7 22 0 2 7 4 16
4 8 0 23 7 31 16 14 13 30 15 92 9 87 -8 188 -8 202 0 5 4 9 1 9 -5 0 -6 13
-1 29 11 16 12 34 18 40 15 6 -4 11 -3 11 3 0 15 -21 25 -29 14 -8 -14 -61
-22 -61 -10 0 5 -7 4 -16 -4 -12 -10 -22 -10 -47 -1 -18 6 -70 12 -117 13 -46
1 -91 5 -100 10 -8 4 -23 10 -32 13 -26 8 -22 26 5 26 12 0 29 5 37 10 13 8
12 10 -2 10 -10 0 -18 7 -18 15 0 9 -12 20 -27 26 -15 5 -33 19 -40 29 -8 11
-21 20 -29 20 -8 0 -14 4 -14 9 0 5 -8 17 -17 26 -13 14 -14 21 -5 36 16 26
15 49 -3 49 -8 0 -15 5 -15 11 0 6 9 9 20 6 11 -3 20 -2 20 2 0 11 -35 41 -47
41 -9 0 -23 22 -23 35 0 1 11 6 25 9 29 7 32 18 10 36 -8 7 -15 21 -15 31 0
16 -4 17 -32 7 -28 -10 -33 -9 -46 10 -8 12 -23 22 -33 22 -11 0 -26 17 -41
47 -13 25 -31 48 -40 51 -10 2 -18 11 -18 18 0 11 11 13 48 9 26 -3 68 -6 93
-5 25 0 79 -9 120 -20 49 -14 115 -24 194 -27 103 -4 132 -2 205 17 47 13 141
28 210 36 137 14 179 23 227 47 46 24 72 22 83 -9 13 -33 12 -54 -1 -31 -9 15
-12 16 -25 2 -9 -8 -24 -15 -35 -15 -11 0 -23 -10 -28 -24 -5 -13 -17 -26 -25
-29 -9 -4 -16 -11 -16 -17 0 -6 5 -8 12 -4 7 4 8 3 4 -5 -4 -6 -12 -9 -17 -6
-5 4 -17 1 -26 -4 -10 -6 -13 -11 -6 -11 6 0 11 -9 10 -21 -1 -16 -6 -19 -24
-14 -20 5 -23 2 -23 -25 0 -35 22 -40 42 -11 16 22 85 53 93 42 6 -11 -21 -65
-40 -81 -8 -7 -15 -20 -14 -29 0 -10 2 -11 6 -3 7 18 23 14 23 -7 0 -12 -11
-21 -32 -27 -21 -6 -34 -17 -36 -29 -6 -40 -45 -114 -63 -118 -22 -6 -26 -37
-4 -37 8 0 29 15 47 33 18 19 40 36 49 39 8 3 30 36 48 72 25 51 30 70 22 80
-12 14 -5 46 10 46 5 0 9 11 9 25 0 14 5 25 10 25 6 0 10 7 10 15 0 9 8 19 17
22 20 8 72 64 73 79 0 6 10 15 22 21 17 7 26 5 41 -10 13 -13 26 -17 43 -13
13 4 24 2 24 -3 0 -5 9 -11 20 -14 14 -4 20 -14 20 -34 1 -25 2 -26 14 -10 17
22 26 22 27 0 0 -13 3 -12 10 6 6 16 6 28 -2 37 -9 11 -8 14 5 14 9 0 16 3 16
8 0 4 5 35 10 70 8 46 7 74 -1 105 -18 61 -23 65 -72 57 -54 -8 -103 5 -117
30 -7 13 -20 20 -38 19 -15 0 -21 -3 -14 -6 19 -7 14 -30 -8 -36 -11 -3 -20 0
-20 6 0 6 -3 7 -6 4 -4 -4 -2 -12 4 -19 18 -22 23 -82 9 -100 -17 -21 -109
-37 -243 -40 -76 -2 -100 -6 -97 -15 3 -7 -2 -13 -12 -13 -9 0 -13 5 -10 10 3
6 -4 10 -17 10 -13 0 -33 3 -46 6 -13 4 -22 3 -21 -2 5 -31 -3 -44 -29 -44
-15 0 -44 -9 -65 -20 -30 -16 -54 -20 -110 -19 -40 2 -86 -1 -103 -5 -27 -6
-35 -3 -53 20 -13 17 -26 24 -37 20 -9 -4 -23 -1 -30 5 -8 6 -14 9 -14 6 0 -3
-11 5 -24 18 -30 29 -93 40 -198 32 -43 -4 -78 -4 -78 -1 0 3 14 19 30 36 27
26 35 29 69 23 33 -5 41 -3 55 16 15 22 16 22 35 5 18 -17 20 -16 50 13 30 29
43 81 21 81 -5 0 -10 6 -10 14 0 17 66 60 79 52 5 -3 16 -3 25 0 12 5 13 9 3
25 -6 10 -16 19 -22 19 -5 0 -22 10 -37 23 -57 47 -73 57 -89 57 -10 0 -19 6
-22 13 -2 7 -25 13 -58 14 -80 2 -87 4 -115 30 -19 17 -24 29 -18 46 8 26 22
37 41 30 14 -5 52 34 53 54 0 6 5 15 12 19 8 5 9 -4 4 -34 -6 -42 -6 -42 24
-42 27 0 34 6 55 53 14 28 25 45 25 37 1 -12 4 -11 15 4 10 13 13 32 9 55 -4
28 -1 41 15 58 20 21 30 84 34 215 2 46 -1 58 -13 58 -12 1 -11 4 3 15 12 9
17 20 13 33 -4 11 3 44 15 73 17 43 20 66 15 109 -11 90 -14 108 -20 119 -10
16 14 58 41 70 13 6 48 11 77 11 69 0 83 -16 106 -125 11 -47 28 -98 38 -113
22 -32 97 -186 107 -222 4 -14 32 -49 62 -77 31 -29 52 -53 47 -53 -14 0 60
-51 96 -66 19 -8 43 -13 53 -10 10 2 21 -2 23 -9 3 -8 12 -11 20 -8 8 3 21 0
30 -7 22 -19 38 1 19 26 -8 10 -15 14 -15 7 0 -14 -46 -18 -52 -5 -6 14 -86
72 -99 72 -8 1 -38 31 -68 68 -33 41 -51 57 -46 42 8 -24 7 -24 -17 5 -33 39
-56 87 -51 102 2 7 -10 26 -27 43 -19 19 -29 37 -26 46 3 9 6 25 6 37 1 20 2
20 11 5 20 -35 25 -17 25 95 0 102 2 117 26 162 60 117 175 181 390 221 72 13
128 16 267 12 97 -3 184 -9 194 -13 29 -12 19 -27 -14 -20 l-31 7 16 -30 c12
-23 13 -32 3 -40 -6 -5 -110 -14 -229 -21 -119 -6 -230 -16 -245 -21 -25 -9
-26 -9 -9 4 17 14 16 15 -19 22 -29 5 -47 2 -79 -15 -85 -45 -91 -50 -93 -77
-1 -15 -7 -31 -14 -34 -6 -4 -8 -13 -4 -20 4 -7 1 -16 -6 -22 -9 -6 1 -7 31
-4 25 3 37 3 28 0 -10 -3 -18 -10 -18 -16 0 -15 -48 -58 -66 -58 -22 0 -17
-16 13 -35 18 -12 50 -19 102 -20 42 -1 96 -8 120 -14 60 -16 87 -8 31 10
l-45 14 40 7 c22 4 86 7 142 7 56 1 105 5 108 11 3 5 29 8 57 7 29 -2 69 2 89
10 48 16 99 7 99 -18 0 -9 7 -24 15 -33 18 -17 12 -58 -11 -77 -19 -16 -18
-59 1 -59 9 0 27 -12 40 -26 l25 -26 12 28 c6 16 13 34 14 39 10 59 18 71 57
90 34 16 37 21 20 23 -12 2 -31 -2 -42 -7 -16 -9 -22 -8 -31 8 -12 24 6 71 28
71 7 0 16 9 19 20 3 11 14 20 24 20 24 0 24 4 -3 36 -13 14 -26 38 -29 54 -8
36 1 130 12 130 13 0 57 -62 75 -106 11 -26 17 -73 19 -144 l2 -105 26 -3 c31
-4 30 -5 47 101 21 139 34 172 85 204 37 23 45 33 45 59 0 33 -40 78 -95 107
-39 21 -272 49 -501 61 -28 2 -62 11 -77 20 -20 14 -30 15 -46 6 -12 -6 -21
-8 -21 -4 0 3 -6 2 -12 -4 -13 -10 -69 -22 -123 -26 -44 -4 -106 -16 -137 -28
-18 -7 -33 -6 -48 2 -13 7 -25 8 -29 4 -3 -5 -17 -18 -30 -29 l-24 -20 6 20
c6 17 4 16 -14 -5 -13 -15 -33 -25 -52 -26 -18 -1 -37 -2 -43 -3 -6 -1 -26
-14 -44 -31 -18 -16 -39 -30 -46 -30 -7 0 -14 -3 -16 -7 -1 -5 -21 -17 -42
-28 -35 -18 -59 -20 -215 -20 -151 1 -181 4 -211 19 -19 11 -37 22 -40 25 -10
12 -50 31 -65 31 -8 0 -15 5 -15 10 0 6 -9 10 -19 10 -11 0 -23 5 -27 11 -3 6
-15 8 -26 6 -11 -3 -34 3 -50 13 -27 16 -33 17 -46 4 -11 -12 -17 -12 -29 -2
-9 7 -28 11 -43 10 -16 -2 -31 1 -35 7 -8 14 -55 14 -55 1 0 -12 -74 -12 -110
0 -14 4 -22 8 -18 9 5 1 -2 12 -14 26 -13 15 -32 25 -49 25 -44 0 -77 19 -72
41 6 20 -11 26 -22 9 -3 -5 -13 -10 -22 -10 -13 0 -14 2 -2 17 8 9 10 14 4 11
-5 -3 -21 -2 -34 3 -23 9 -24 10 -5 25 18 14 18 14 -4 12 -12 -2 -22 -7 -22
-12 1 -10 -46 -36 -66 -36 -24 0 -16 27 16 53 36 31 36 33 8 41 -19 5 -20 8
-8 16 12 7 9 12 -17 21 -25 8 -33 17 -33 34 0 13 -7 28 -17 33 -11 7 -14 15
-8 28 5 13 9 15 12 7 6 -17 55 -17 52 0 -3 18 12 67 20 63 9 -6 -2 106 -12
122 -12 18 -27 15 -37 -10 -9 -23 -9 -23 -9 3 -1 14 -6 30 -13 37 -9 9 -7 12
11 12 18 0 22 4 16 18 -4 9 -10 27 -12 40 -4 18 -12 22 -43 22 -29 0 -39 -4
-43 -20 -3 -11 -12 -20 -20 -20 -8 0 -17 9 -20 20 -4 15 0 20 13 20 24 0 36
18 21 33 -8 8 -11 8 -11 -1 0 -7 -12 -1 -26 14 -20 19 -24 28 -15 34 10 5 10
17 2 46 -9 33 -7 45 16 94 18 36 28 49 31 38 3 -15 10 -11 43 19 21 20 39 42
39 50 0 7 6 13 13 13 16 0 77 61 77 77 0 7 8 14 18 17 10 4 29 16 41 27 18 17
20 23 10 30 -10 6 -7 13 13 31 14 13 31 33 37 46 6 12 18 22 26 22 9 0 15 9
15 23 0 17 11 30 40 46 25 14 40 30 40 41 0 11 8 24 19 29 10 6 24 24 31 40
15 36 36 44 93 36 35 -5 45 -4 50 9 5 13 17 15 67 9 50 -5 60 -3 60 10 0 8 -6
17 -12 20 -7 3 -4 5 7 5 39 1 105 15 105 22 0 4 29 6 65 5 36 -2 65 1 65 6 0
5 7 9 15 9 8 0 15 5 15 10 0 19 32 10 37 -10 5 -21 53 -30 53 -10 0 6 25 10
55 10 33 0 59 5 67 14 17 18 84 9 118 -15 14 -10 43 -19 65 -21 33 -3 40 0 43
17 8 45 10 47 43 28 29 -17 31 -17 40 0 7 12 14 15 22 9 7 -6 30 -8 52 -5 50
6 84 6 163 -2 55 -6 63 -9 68 -31 3 -13 9 -22 13 -20 4 3 27 0 50 -6 34 -9 45
-8 51 2 7 11 11 11 24 1 9 -8 16 -20 16 -27 0 -8 4 -14 10 -14 5 0 9 10 7 22
-2 19 3 21 53 23 30 1 64 -3 75 -8 13 -7 20 -6 23 2 2 6 9 8 15 4 19 -12 55
-14 61 -4 4 6 17 4 34 -5 15 -7 33 -14 40 -14 7 0 15 -7 19 -16 3 -8 16 -20
29 -25 13 -4 24 -15 24 -23 0 -7 7 -17 16 -20 12 -4 14 -14 9 -37 -8 -36 13
-98 26 -77 7 10 9 10 9 1 0 -7 7 -13 15 -13 9 0 16 -10 17 -27 2 -49 3 -52 15
-64 13 -13 37 -3 28 12 -4 5 -3 9 0 9 3 0 11 -13 16 -30 6 -16 15 -30 20 -30
14 0 52 -88 45 -106 -8 -20 21 -67 35 -59 5 4 12 -2 15 -12 3 -10 10 -27 14
-38 5 -11 10 -29 12 -40 2 -10 20 -28 41 -39 33 -17 37 -24 37 -58 0 -49 21
-118 36 -118 15 0 24 -71 11 -88 -9 -12 -5 -60 8 -94 4 -11 1 -18 -12 -21 -14
-4 -14 -5 -2 -6 27 -2 57 -76 97 -237 47 -186 38 -211 -78 -232 l-45 -8 33 -8
c23 -6 40 -3 57 8 23 15 91 16 115 1 19 -12 10 -43 -22 -70 -17 -15 -27 -30
-22 -33 6 -4 16 -49 22 -101 7 -51 17 -101 22 -110 5 -9 11 -44 15 -76 4 -33
9 -68 11 -77 6 -22 24 -24 24 -3 0 8 5 15 11 15 5 0 8 4 4 9 -3 5 -1 45 4 89
9 81 38 142 68 142 9 0 13 14 14 43 0 23 1 60 2 82 1 22 -2 43 -7 47 -7 4 -4
20 6 41 26 54 42 222 42 447 1 211 -11 303 -40 314 -17 7 -19 37 -1 34 19 -4
20 55 3 116 -9 30 -16 62 -16 73 0 10 -7 31 -15 46 -8 16 -9 25 -3 21 8 -5 9
-1 3 12 -14 34 -18 64 -8 64 13 0 7 193 -8 238 -16 49 -84 149 -112 163 -12 7
-28 19 -36 26 -8 8 -22 12 -32 10 -11 -3 -34 10 -60 34 -24 22 -51 39 -60 39
-23 0 -59 60 -59 99 0 17 -4 31 -10 31 -5 0 -10 13 -10 30 0 18 -10 39 -25 54
-14 14 -25 28 -25 31 0 11 -83 85 -137 122 -74 51 -114 72 -138 73 -11 0 -34
16 -50 35 -17 19 -34 35 -39 35 -5 0 -30 13 -56 29 -27 16 -50 28 -52 25 -3
-2 -22 3 -42 11 -33 14 -38 14 -52 0 -9 -8 -17 -15 -18 -15 -17 0 -97 45 -116
64 -26 29 -50 34 -50 11 0 -8 -4 -15 -10 -15 -5 0 -10 -7 -10 -16 0 -14 -2
-14 -16 -3 -10 8 -12 15 -5 17 6 2 11 8 11 14 0 6 -7 5 -16 -3 -14 -11 -18
-10 -30 6 -8 10 -14 25 -14 32 0 7 -4 13 -10 13 -5 0 -10 5 -10 10 0 6 7 10
15 10 29 0 14 25 -27 48 -51 26 -108 31 -88 7 10 -12 10 -15 -3 -15 -9 0 -20
8 -25 17 -8 13 -29 17 -118 20 -60 2 -145 8 -189 13 -88 11 -106 11 -150 0z
m200 -41 c7 -7 -2 -9 -29 -7 -23 2 -41 9 -44 17 -4 11 3 13 29 7 18 -3 38 -11
44 -17z m353 -26 c5 -18 -16 -16 -35 3 -15 14 -14 16 7 12 13 -1 25 -9 28 -15z
m-253 -83 c3 -5 -1 -10 -10 -10 -9 0 -13 5 -10 10 3 6 8 10 10 10 2 0 7 -4 10
-10z m290 -30 c4 -6 -5 -10 -19 -10 -14 0 -26 5 -26 10 0 6 9 10 19 10 11 0
23 -4 26 -10z m-456 -21 c13 -11 21 -22 17 -26 -10 -10 -56 15 -56 32 0 20 10
19 39 -6z m626 -10 c10 -30 0 -34 -31 -14 -21 13 -24 19 -13 26 23 14 37 10
44 -12z m-1375 -9 c0 -5 -7 -10 -16 -10 -8 0 -12 5 -9 10 3 6 10 10 16 10 5 0
9 -4 9 -10z m1134 0 c32 -12 35 -34 4 -25 -27 8 -58 35 -41 35 7 0 23 -4 37
-10z m-1046 -18 c2 -7 -7 -12 -22 -12 -27 0 -35 15 -13 23 17 7 30 3 35 -11z
m1385 -13 c18 -18 19 -21 4 -15 -10 3 -23 6 -28 6 -5 0 -9 7 -9 15 0 20 7 19
33 -6z m92 -43 c19 -8 35 -13 35 -10 0 3 13 -5 29 -18 16 -12 40 -31 52 -40
13 -10 18 -18 11 -18 -7 0 -12 -4 -12 -10 0 -5 4 -10 10 -10 12 0 50 -32 50
-42 0 -4 -13 -2 -30 3 -16 6 -30 15 -30 20 0 4 -18 14 -40 20 -24 7 -54 27
-72 48 -40 46 -70 68 -66 49 4 -16 -24 -18 -29 -1 -4 10 14 19 45 22 7 0 28
-6 47 -13z m-29 -141 c18 -14 18 -14 -7 -15 -15 0 -29 7 -33 15 -7 19 14 19
40 0z m338 -31 c9 -24 7 -28 -9 -14 -17 14 -20 30 -6 30 5 0 12 -7 15 -16z
m-1320 -30 c3 -9 6 -25 6 -37 -1 -17 -4 -15 -15 12 -18 39 -18 41 -6 41 5 0
12 -7 15 -16z m1156 6 c0 -5 -4 -10 -10 -10 -5 0 -10 5 -10 10 0 6 5 10 10 10
6 0 10 -4 10 -10z m-966 -45 c11 -8 16 -18 12 -22 -3 -4 -16 3 -28 15 -25 25
-13 29 16 7z m-394 -57 c0 -16 -3 -19 -11 -11 -6 6 -8 16 -5 22 11 17 16 13
16 -11z m-950 -86 c0 -5 -11 -19 -24 -31 -18 -17 -26 -19 -32 -10 -4 7 2 19
16 31 24 19 40 23 40 10z m3040 -330 c0 -5 -11 -7 -26 -4 -18 3 -27 13 -31 33
-3 16 -10 32 -14 35 -5 3 -9 11 -9 17 1 14 80 -67 80 -81z m-374 -16 c20 -18
32 -36 27 -39 -11 -7 -73 46 -73 62 0 17 6 14 46 -23z m64 -66 c0 -5 -2 -10
-4 -10 -3 0 -8 5 -11 10 -3 6 -1 10 4 10 6 0 11 -4 11 -10z m80 -20 c0 -5 -2
-10 -4 -10 -3 0 -8 5 -11 10 -3 6 -1 10 4 10 6 0 11 -4 11 -10z m-20 -36 c0
-14 -3 -14 -15 -4 -8 7 -15 14 -15 16 0 2 7 4 15 4 8 0 15 -7 15 -16z m90 -10
c0 -8 -4 -12 -10 -9 -5 3 -10 13 -10 21 0 8 5 12 10 9 6 -3 10 -13 10 -21z
m-2693 -220 c-3 -3 -12 -4 -19 -1 -8 3 -5 6 6 6 11 1 17 -2 13 -5z m2920 -186
c-3 -8 -6 -5 -6 6 -1 11 2 17 5 13 3 -3 4 -12 1 -19z m-3149 -73 c-3 -3 -9 2
-12 12 -6 14 -5 15 5 6 7 -7 10 -15 7 -18z m-1 -57 c-3 -8 -6 -5 -6 6 -1 11 2
17 5 13 3 -3 4 -12 1 -19z m2890 -110 c-3 -8 -6 -5 -6 6 -1 11 2 17 5 13 3 -3
4 -12 1 -19z m-2727 -249 c0 -20 -15 -26 -25 -9 -9 15 3 43 15 35 5 -3 10 -15
10 -26z m-48 -41 c-8 -8 -9 -4 -5 13 4 13 8 18 11 10 2 -7 -1 -18 -6 -23z
m-21 -237 c34 -32 13 -90 -33 -91 -14 0 -18 9 -18 40 0 22 5 40 10 40 6 0 10
7 10 15 0 20 7 19 31 -4z m172 -8 c3 -5 -16 -9 -41 -9 -44 -2 -45 -2 -12 6 19
4 38 8 42 9 4 0 9 -2 11 -6z m-283 -17 c0 -8 -4 -18 -10 -21 -5 -3 -10 -14
-10 -25 0 -10 -7 -20 -15 -24 -8 -3 -15 -17 -15 -31 0 -15 -4 -24 -10 -20 -5
3 -10 2 -10 -4 0 -5 6 -14 14 -18 22 -13 -5 -30 -34 -22 -14 4 -19 7 -11 8 11
1 11 4 1 16 -10 13 -10 19 5 35 9 10 14 24 10 29 -4 7 3 11 17 11 22 0 48 36
48 67 0 7 5 13 10 13 6 0 10 -6 10 -14z m-70 -26 c-6 -12 -14 -19 -17 -17 -2
3 1 15 7 27 6 12 14 19 17 17 2 -3 -1 -15 -7 -27z m1935 -79 c-6 -5 -46 -23
-90 -41 -44 -17 -110 -49 -147 -71 -36 -21 -72 -39 -80 -39 -37 1 141 100 242
134 85 29 88 29 75 17z m-1075 -42 c82 -12 130 -28 130 -41 0 -6 -8 -7 -17 -3
-39 14 -120 25 -193 25 -53 0 -81 4 -89 13 -24 29 8 31 169 6z m-54 -40 c83
-15 204 -64 240 -96 16 -16 22 -22 12 -14 -14 11 -23 12 -44 3 -29 -14 -47
-15 -40 -4 14 23 -73 69 -93 49 -7 -7 -16 -5 -31 8 -18 16 -20 16 -26 1 -4 -9
0 -24 9 -34 8 -9 18 -27 21 -39 6 -18 3 -20 -12 -16 -24 6 -37 -11 -19 -25 6
-5 26 -14 42 -19 17 -6 29 -16 27 -22 -1 -6 6 -11 16 -11 19 0 42 -18 42 -34
0 -5 -8 -2 -17 6 -10 8 -25 15 -33 15 -8 0 -44 7 -80 16 -72 18 -200 38 -209
32 -4 -2 -31 -4 -61 -6 -30 -1 -60 -6 -67 -11 -7 -6 -14 -4 -19 3 -4 8 4 21
22 36 16 12 26 23 22 24 -14 2 -58 1 -60 -1 -2 -1 -22 -3 -45 -4 -31 -2 -43 1
-43 11 0 8 -5 11 -10 8 -12 -8 -42 20 -32 29 3 4 0 12 -8 17 -13 9 -12 10 2 5
10 -3 20 -1 23 4 10 16 -50 21 -90 7 -38 -13 -40 -16 -37 -52 3 -23 0 -35 -6
-31 -6 3 -9 18 -6 31 5 31 0 31 -38 3 -17 -11 -42 -46 -56 -76 -23 -50 -24
-62 -18 -146 6 -88 24 -177 39 -192 4 -4 7 -14 7 -23 0 -52 102 -231 131 -231
9 0 24 56 24 94 0 16 6 31 13 33 6 3 12 -2 12 -10 0 -15 29 -32 38 -22 3 3 -1
5 -8 5 -9 0 -5 9 10 25 30 32 90 49 122 35 17 -8 33 -7 63 3 l40 14 -33 7
c-27 6 -31 10 -21 22 9 11 8 15 -3 19 -8 3 -19 5 -24 3 -17 -4 -84 13 -84 22
0 6 -7 10 -15 10 -28 0 -19 66 15 99 17 19 32 26 36 20 3 -6 13 -7 23 -4 9 4
59 11 111 16 156 16 168 21 196 86 18 41 29 53 40 49 9 -3 26 -6 39 -6 12 0
37 -14 55 -30 22 -20 39 -29 51 -25 11 4 19 2 19 -3 0 -6 -34 -13 -75 -17 -88
-9 -101 -26 -17 -23 37 1 68 -4 89 -15 l31 -17 -2 -130 c-2 -74 1 -133 7 -137
5 -3 6 -23 3 -44 -6 -38 -5 -39 14 -27 11 7 41 53 65 103 34 69 48 111 59 180
11 67 15 80 16 50 1 -22 2 -47 1 -55 -2 -13 -1 -13 8 0 6 8 11 32 11 53 0 21
5 37 11 37 8 0 9 -13 5 -39 -3 -23 -1 -51 6 -66 10 -21 8 -28 -8 -43 -10 -10
-27 -21 -36 -25 -10 -3 -18 -12 -18 -19 0 -21 -47 -116 -69 -140 -12 -12 -21
-27 -21 -34 0 -6 -7 -17 -15 -24 -11 -9 -12 -16 -4 -26 13 -16 4 -34 -17 -34
-8 0 -14 -4 -14 -10 0 -5 -5 -10 -12 -10 -13 0 -58 -39 -58 -51 0 -5 12 -4 26
1 37 14 44 13 44 -11 0 -13 -23 -44 -57 -78 -32 -31 -63 -65 -70 -76 -53 -89
-64 -127 -25 -92 23 21 32 21 32 2 0 -8 -6 -15 -12 -16 -10 0 -10 -2 0 -6 6
-2 12 -16 12 -29 0 -13 5 -24 11 -24 5 0 7 -5 3 -12 -4 -7 -7 -33 -7 -58 1
-25 -1 -35 -4 -22 -2 12 -8 22 -13 22 -13 0 -20 -40 -7 -40 7 0 1 -9 -12 -19
-13 -10 -29 -34 -35 -52 -9 -29 -17 -35 -53 -42 -44 -8 -62 -37 -24 -37 31 0
13 -39 -25 -55 -38 -16 -39 -18 -22 -83 12 -51 24 -64 49 -56 20 6 34 -25 19
-40 -14 -14 -12 -26 5 -26 8 0 15 -7 15 -15 0 -8 4 -15 8 -15 5 0 9 -14 9 -31
0 -17 4 -34 10 -37 14 -10 47 -81 40 -88 -3 -4 5 -16 19 -29 13 -12 24 -29 24
-38 0 -27 12 -47 27 -47 8 0 12 -4 9 -8 -7 -11 15 -82 25 -82 4 0 10 -14 14
-31 4 -17 16 -40 26 -50 23 -23 24 -46 2 -111 -13 -40 -14 -59 -6 -90 8 -31 8
-38 -4 -38 -7 0 -17 8 -20 18 -10 27 -51 65 -63 57 -5 -3 -10 -21 -10 -38 0
-18 -5 -39 -10 -47 -8 -11 -9 -8 -4 12 5 23 2 27 -25 33 -22 5 -31 12 -31 26
0 24 -19 25 -35 2 -12 -16 -16 -16 -40 -3 -15 8 -30 21 -33 30 -3 8 -21 31
-39 50 -31 33 -35 43 -37 88 -1 9 -12 27 -24 39 -13 12 -22 28 -20 34 5 16
-23 47 -38 42 -19 -7 -24 36 -6 47 16 9 15 9 -1 10 -14 0 -40 11 -67 28 -2 2
2 7 10 12 12 7 9 14 -15 34 -17 14 -33 26 -37 26 -5 0 -8 9 -8 20 0 11 -4 20
-10 20 -5 0 -14 15 -19 33 -9 28 -10 27 -5 -15 6 -46 -8 -78 -34 -78 -10 0
-27 65 -23 89 1 7 -4 11 -11 9 -7 -3 -12 -15 -10 -26 4 -27 -17 -21 -39 10 -7
12 -29 37 -48 55 -25 26 -32 39 -27 57 8 31 27 38 61 20 15 -8 34 -14 41 -14
21 0 17 30 -3 31 -17 1 -17 2 0 6 20 5 20 7 8 51 -5 17 -9 32 -8 32 1 0 17 -4
34 -9 20 -6 35 -6 38 0 4 5 -7 9 -22 9 -44 0 -73 40 -39 53 11 4 13 1 9 -10
-5 -13 -3 -15 13 -8 10 5 34 9 51 9 23 0 35 5 39 18 3 10 15 18 26 18 11 0 27
8 34 18 12 16 13 16 19 0 4 -10 17 -18 30 -18 13 0 26 -6 28 -12 4 -9 6 -7 6
3 1 19 66 65 105 75 37 9 35 49 -2 68 -26 13 -31 13 -60 -6 -18 -11 -32 -24
-32 -29 0 -5 -10 -14 -22 -19 -13 -6 -36 -18 -53 -28 -33 -21 -105 -36 -105
-22 0 11 26 20 56 20 13 0 24 5 24 10 0 6 -7 10 -15 10 -9 0 -20 10 -24 23
-12 29 -55 74 -80 82 -10 3 -24 19 -31 35 -10 23 -19 30 -40 30 -22 0 -29 6
-34 28 -26 104 -24 101 -62 97 -35 -2 -36 -2 -30 29 4 21 3 26 -3 16 -6 -8
-13 -11 -17 -7 -7 6 -15 55 -14 85 0 11 0 28 0 80 0 33 65 152 84 152 3 0 6
-8 6 -17 0 -9 3 -13 7 -10 3 4 11 0 18 -9 6 -9 20 -14 31 -11 18 5 17 5 -3 12
-13 4 -23 12 -23 17 0 5 -24 34 -54 65 -77 81 -172 280 -149 316 4 6 8 68 8
137 0 135 12 177 67 226 45 42 156 86 273 110 77 15 324 17 401 3z m1181 -45
c-3 -3 -12 -4 -19 -1 -8 3 -5 6 6 6 11 1 17 -2 13 -5z m408 -24 c-3 -6 4 -10
18 -10 13 0 32 -9 43 -21 l18 -20 -54 8 c-75 11 -267 8 -282 -4 -7 -6 -29 -14
-48 -17 -32 -6 -31 -5 15 18 28 14 59 25 70 26 11 0 29 7 39 15 23 18 191 22
181 5z m-2505 -9 c0 -10 -30 -24 -37 -17 -3 3 -2 9 2 15 8 13 35 15 35 2z
m1656 -6 c-50 -14 -66 -12 -66 6 0 5 26 9 58 8 l57 -1 -49 -13z m-341 -5 c3
-5 2 -10 -4 -10 -5 0 -13 5 -16 10 -3 6 -2 10 4 10 5 0 13 -4 16 -10z m200 0
c-3 -5 -22 -10 -41 -10 -19 0 -34 5 -34 10 0 6 18 10 41 10 24 0 38 -4 34 -10z
m465 -41 c0 -14 -17 -10 -23 5 -4 10 -1 13 9 9 7 -3 14 -9 14 -14z m-2040 -15
c0 -8 -5 -12 -10 -9 -6 4 -8 11 -5 16 9 14 15 11 15 -7z m2611 -25 c27 -12 49
-27 49 -34 0 -14 -64 -47 -95 -49 -13 -1 -20 5 -19 17 0 9 1 33 2 52 1 19 5
35 8 35 3 0 28 -10 55 -21z m-147 5 c24 -9 21 -54 -4 -54 -23 0 -35 22 -26 45
6 17 8 17 30 9z m-179 -52 c7 -22 10 -44 7 -47 -10 -10 -138 -5 -149 6 -14 14
26 51 79 74 44 19 49 16 63 -33z m110 28 c3 -5 2 -17 -2 -25 -8 -13 -11 -14
-28 0 -17 13 -18 16 -5 25 19 12 27 13 35 0z m-1880 -19 c3 -5 1 -12 -5 -16
-5 -3 -10 1 -10 9 0 18 6 21 15 7z m415 -59 c0 -12 -47 -25 -60 -17 -15 9 -12
36 6 56 16 18 17 17 35 -5 11 -13 19 -29 19 -34z m-560 38 c-20 -13 -53 -13
-45 0 3 6 18 10 33 10 21 0 24 -2 12 -10z m1681 -20 c-19 -16 -37 -27 -40 -24
-8 7 47 54 62 54 7 -1 -3 -14 -22 -30z m-1341 -15 c-5 -6 -7 -28 -3 -48 5 -33
3 -37 -16 -37 -28 0 -86 25 -96 41 -5 8 5 24 28 45 33 30 38 32 66 21 20 -7
27 -15 21 -22z m-598 -17 c-10 -22 -11 -21 -11 12 -1 26 2 31 11 22 8 -8 8
-17 0 -34z m723 5 c-9 -37 -10 -38 -34 -14 -12 12 -29 21 -38 22 -24 1 24 17
56 18 20 1 22 -2 16 -26z m1280 7 c-11 -5 -27 -9 -35 -9 -13 -1 -13 0 0 9 8 5
24 9 35 9 l20 0 -20 -9z m-960 -10 c3 -6 -1 -7 -9 -4 -18 7 -21 14 -7 14 6 0
13 -4 16 -10z m-638 -6 c-3 -3 -12 -4 -19 -1 -8 3 -5 6 6 6 11 1 17 -2 13 -5z
m1479 -21 c-10 -10 -19 5 -10 18 6 11 8 11 12 0 2 -7 1 -15 -2 -18z m-1826
-183 c0 -5 -4 -10 -10 -10 -5 0 -10 5 -10 10 0 6 5 10 10 10 6 0 10 -4 10 -10z
m120 -500 c0 -5 -4 -10 -10 -10 -5 0 -10 5 -10 10 0 6 5 10 10 10 6 0 10 -4
10 -10z m130 -276 c0 -8 -5 -12 -10 -9 -6 4 -8 11 -5 16 9 14 15 11 15 -7z
m1850 -483 c0 -5 -9 -7 -20 -4 -11 3 -20 7 -20 9 0 2 9 4 20 4 11 0 20 -4 20
-9z m-1699 -294 c-10 -9 -11 -8 -5 6 3 10 9 15 12 12 3 -3 0 -11 -7 -18z m824
-146 c3 -5 1 -12 -5 -16 -5 -3 -10 1 -10 9 0 18 6 21 15 7z m-410 -250 c-3
-12 -11 -19 -16 -16 -5 4 -3 14 3 25 15 24 22 19 13 -9z m235 -46 c0 -8 -4
-15 -9 -15 -13 0 -22 16 -14 24 11 11 23 6 23 -9z m0 -39 c0 -11 -19 -15 -25
-6 -3 5 1 10 9 10 9 0 16 -2 16 -4z m13 -145 c2 -10 1 -25 -4 -32 -6 -10 -9
-6 -9 13 0 14 -6 29 -12 31 -8 4 -7 6 3 6 9 1 19 -8 22 -18z m1104 -103 c-3
-8 -6 -5 -6 6 -1 11 2 17 5 13 3 -3 4 -12 1 -19z m-1502 -58 c3 -5 1 -10 -4
-10 -6 0 -11 5 -11 10 0 6 2 10 4 10 3 0 8 -4 11 -10z"/>
<path d="M2173 4045 c0 -8 6 -15 13 -15 6 0 14 7 18 15 3 10 -1 15 -13 15 -10
0 -18 -7 -18 -15z"/>
<path d="M2385 3173 c-11 -3 -24 -9 -30 -15 -13 -13 56 0 70 13 10 10 -5 10
-40 2z"/>
<path d="M1868 3153 c7 -3 16 -2 19 1 4 3 -2 6 -13 5 -11 0 -14 -3 -6 -6z"/>
<path d="M1910 3141 c0 -12 26 -21 58 -20 26 0 25 1 -8 14 -43 17 -50 17 -50
6z"/>
<path d="M2230 3133 c-48 -8 -118 -13 -160 -10 -42 2 -66 1 -55 -4 49 -19 271
-4 315 22 21 12 6 11 -100 -8z"/>
<path d="M1675 3099 c-4 -11 -4 -23 -1 -26 3 -4 6 1 6 10 0 10 5 17 10 17 6 0
10 5 10 10 0 18 -19 10 -25 -11z"/>
<path d="M2305 2840 c-3 -5 -1 -10 4 -10 6 0 11 5 11 10 0 6 -2 10 -4 10 -3 0
-8 -4 -11 -10z"/>
<path d="M2000 2489 c0 -5 5 -7 10 -4 6 3 10 8 10 11 0 2 -4 4 -10 4 -5 0 -10
-5 -10 -11z"/>
<path d="M1760 2300 c0 -5 7 -10 15 -10 8 0 15 5 15 10 0 6 -7 10 -15 10 -8 0
-15 -4 -15 -10z"/>
<path d="M1745 4920 c-3 -5 -1 -10 4 -10 6 0 11 5 11 10 0 6 -2 10 -4 10 -3 0
-8 -4 -11 -10z"/>
<path d="M1825 4340 c3 -5 8 -10 11 -10 2 0 4 5 4 10 0 6 -5 10 -11 10 -5 0
-7 -4 -4 -10z"/>
<path d="M3555 4118 c-27 -6 -71 -20 -98 -32 -42 -19 -46 -22 -30 -33 21 -16
37 -17 27 -2 -4 8 3 9 25 4 18 -4 31 -3 31 3 0 6 9 8 20 5 11 -3 20 -1 20 5 0
6 -8 13 -17 15 -10 3 1 5 25 6 23 0 42 6 42 11 0 6 10 15 23 20 20 8 20 9 2 8
-11 0 -42 -5 -70 -10z"/>
<path d="M4834 4075 c-17 -12 -17 -15 -3 -27 25 -21 51 -69 45 -84 -3 -8 0
-14 7 -14 8 0 14 16 15 40 2 22 -1 40 -7 40 -5 0 -7 8 -5 18 7 26 -29 45 -52
27z"/>
<path d="M3250 3917 c0 -8 -6 -17 -12 -20 -7 -2 -11 -6 -8 -9 3 -3 15 1 28 7
20 11 21 14 7 25 -12 10 -15 10 -15 -3z"/>
<path d="M3195 3840 c-3 -5 1 -10 9 -10 9 0 16 5 16 10 0 6 -4 10 -9 10 -6 0
-13 -4 -16 -10z"/>
<path d="M3208 3778 c9 -9 15 -9 24 0 9 9 7 12 -12 12 -19 0 -21 -3 -12 -12z"/>
<path d="M3525 3630 c3 -5 13 -10 21 -10 8 0 14 5 14 10 0 6 -9 10 -21 10 -11
0 -17 -4 -14 -10z"/>
<path d="M3645 3600 c11 -5 36 -8 55 -8 l35 0 -30 8 c-16 4 -41 8 -55 8 -23 1
-23 0 -5 -8z"/>
<path d="M1240 3566 c0 -9 5 -16 10 -16 6 0 10 4 10 9 0 6 -4 13 -10 16 -5 3
-10 -1 -10 -9z"/>
<path d="M4687 3376 c-9 -7 -17 -22 -16 -32 0 -11 3 -13 6 -6 2 6 11 12 18 12
18 0 26 13 17 27 -5 8 -12 8 -25 -1z"/>
<path d="M4083 3277 c-41 -15 -52 -27 -26 -27 12 0 31 9 44 20 27 22 26 23
-18 7z"/>
<path d="M2812 3235 c-18 -38 -15 -45 17 -45 26 0 29 3 27 32 -2 41 -28 49
-44 13z"/>
<path d="M3915 3219 c-27 -5 -58 -7 -67 -5 -9 2 -19 -1 -20 -6 -2 -6 -40 -14
-83 -18 l-80 -8 95 3 c118 5 175 13 209 31 29 15 20 16 -54 3z"/>
<path d="M3356 3173 c-3 -4 -6 -13 -6 -22 0 -11 3 -12 8 -4 9 15 26 5 35 -21
9 -24 21 -14 13 11 -7 20 -41 45 -50 36z"/>
<path d="M1372 3101 c-8 -5 -11 -28 -8 -72 3 -35 5 -77 5 -93 1 -23 4 -26 15
-17 10 8 16 9 21 1 3 -5 1 -10 -6 -10 -8 0 -8 -4 1 -15 10 -12 16 -13 27 -3
18 15 8 99 -17 140 -10 16 -16 38 -13 48 6 21 -8 32 -25 21z"/>
<path d="M2876 3065 c4 -8 10 -12 15 -9 14 8 10 24 -6 24 -9 0 -12 -6 -9 -15z"/>
<path d="M3680 2930 c0 -5 -7 -10 -16 -10 -14 0 -14 -1 0 -16 9 -8 16 -22 16
-31 0 -13 3 -13 15 -3 20 17 19 31 -1 23 -14 -5 -16 -2 -10 20 3 15 4 27 1 27
-3 0 -5 -4 -5 -10z"/>
<path d="M3294 2900 c-31 -12 -43 -34 -15 -26 11 3 30 9 41 12 22 6 28 24 8
23 -7 0 -23 -4 -34 -9z"/>
<path d="M4334 2846 c-10 -21 -9 -23 5 -18 20 7 31 23 25 34 -9 14 -19 9 -30
-16z"/>
<path d="M4409 2826 c-12 -26 -7 -56 10 -56 11 0 20 69 9 76 -4 3 -13 -6 -19
-20z"/>
<path d="M4171 2767 c-6 -8 -7 -18 -3 -22 4 -5 1 -5 -6 -1 -7 5 -15 -1 -21
-16 -5 -13 -26 -33 -47 -43 -22 -11 -41 -21 -44 -23 -3 -2 3 -8 13 -13 21 -12
23 -49 1 -49 -8 0 -12 -5 -8 -11 10 -17 63 -2 84 23 l19 23 1 -21 c0 -12 -7
-24 -15 -28 -15 -5 -19 -76 -4 -76 5 0 4 -11 -3 -25 -8 -18 -8 -28 0 -38 9
-10 7 -17 -8 -27 -11 -8 -20 -17 -20 -21 0 -9 41 -22 59 -19 13 1 13 -1 2 -14
-12 -14 -9 -16 22 -16 38 0 67 27 67 62 0 10 6 18 14 18 11 0 14 16 12 80 -3
60 0 80 10 80 19 0 23 23 7 39 -8 8 -12 22 -10 33 3 10 1 16 -4 12 -5 -3 -9 3
-9 13 0 10 -12 24 -27 30 -22 11 -28 10 -39 -5 -7 -9 -16 -13 -21 -9 -4 5 0
14 9 21 11 8 15 20 11 34 -6 25 -25 29 -42 9z"/>
<path d="M4080 2535 c0 -9 5 -15 11 -13 6 2 11 8 11 13 0 5 -5 11 -11 13 -6 2
-11 -4 -11 -13z"/>
<path d="M4082 2490 c0 -14 2 -19 5 -12 2 6 2 18 0 25 -3 6 -5 1 -5 -13z"/>
<path d="M4430 2340 c0 -5 5 -10 10 -10 6 0 10 5 10 10 0 6 -4 10 -10 10 -5 0
-10 -4 -10 -10z"/>
<path d="M4415 2287 c-4 -10 -3 -23 4 -30 16 -16 23 -3 12 24 -8 22 -10 22
-16 6z"/>
<path d="M3370 2220 c-8 -5 -12 -11 -10 -14 3 -2 14 2 24 10 22 15 10 19 -14
4z"/>
<path d="M4187 2175 c-8 -18 11 -31 25 -17 11 11 3 32 -12 32 -4 0 -10 -7 -13
-15z"/>
<path d="M2720 2049 c0 -52 24 -48 27 4 2 27 -2 37 -12 37 -11 0 -15 -12 -15
-41z"/>
<path d="M4147 2056 c-4 -10 -5 -21 -2 -24 9 -9 17 6 13 25 -3 17 -4 17 -11
-1z"/>
<path d="M4473 1920 c-1 -235 -77 -582 -188 -860 -40 -100 -73 -201 -110 -335
-10 -33 -21 -69 -25 -80 -4 -11 -38 -112 -75 -225 -72 -219 -128 -365 -151
-391 -8 -8 -14 -19 -14 -22 0 -4 473 -7 1050 -7 l1050 0 0 513 0 513 -102 54
c-57 30 -140 76 -186 102 -46 26 -85 48 -88 48 -2 0 -41 17 -86 38 -46 22
-107 47 -135 57 -29 11 -53 23 -53 27 0 4 -6 8 -12 8 -23 0 -220 86 -398 174
l-175 85 -90 98 c-121 131 -150 170 -183 244 l-29 64 0 -105z"/>
<path d="M3310 1914 c0 -9 5 -14 12 -12 18 6 21 28 4 28 -9 0 -16 -7 -16 -16z"/>
<path d="M3350 1919 c0 -5 5 -7 10 -4 6 3 10 8 10 11 0 2 -4 4 -10 4 -5 0 -10
-5 -10 -11z"/>
<path d="M4335 1823 c-49 -111 -128 -250 -185 -328 -20 -27 -39 -58 -43 -67
-3 -10 -11 -18 -17 -18 -5 0 -10 -6 -10 -13 0 -14 -59 -100 -72 -105 -5 -2 -8
-10 -8 -17 0 -7 -13 -26 -30 -42 -16 -15 -30 -35 -30 -43 0 -19 -104 -157
-166 -220 -24 -25 -44 -51 -44 -57 0 -13 -66 -73 -80 -73 -6 0 -16 -14 -23
-31 -9 -23 -24 -36 -57 -49 -25 -10 -47 -25 -48 -35 -5 -24 -93 -109 -130
-126 -18 -8 -32 -19 -32 -26 0 -20 -44 -61 -69 -65 l-23 -3 21 -24 c12 -13 21
-31 21 -39 0 -13 16 -14 108 -9 59 3 98 3 88 0 -17 -4 -15 -7 12 -19 22 -9 32
-20 32 -34 0 -11 -6 -20 -12 -19 -25 3 -39 -1 -34 -9 7 -11 -58 -75 -67 -66
-3 3 -20 -4 -37 -16 -26 -19 -34 -20 -41 -9 -7 12 -10 11 -21 -1 -7 -9 -39
-24 -70 -34 -41 -14 -66 -30 -89 -57 -18 -22 -38 -39 -44 -39 -16 0 -57 -45
-48 -54 4 -4 1 -11 -7 -17 -22 -14 106 -1 150 16 19 7 60 18 90 25 30 7 66 20
80 29 14 9 36 16 50 16 20 0 26 6 28 28 2 15 9 27 18 27 8 0 14 6 14 13 0 7 5
18 12 25 6 6 13 24 14 39 2 15 8 29 14 31 6 2 16 14 21 26 26 57 79 126 96
126 7 0 13 4 13 9 0 5 9 13 21 16 33 11 95 71 124 121 14 24 29 44 33 44 4 0
20 29 36 65 15 35 43 89 61 119 18 30 35 66 39 81 4 15 20 41 37 57 16 16 29
34 29 39 0 5 11 9 24 9 14 0 28 5 31 11 11 18 -4 23 -31 11 -14 -7 -23 -9 -21
-5 3 5 14 29 26 55 12 26 35 58 51 70 31 23 41 44 15 35 -11 -5 -13 0 -8 26 3
18 13 46 21 62 8 17 17 41 18 55 5 38 12 66 47 170 29 86 35 95 59 98 46 5 64
52 21 52 -14 0 -12 4 6 23 13 15 19 30 15 41 -3 9 -2 22 4 29 8 10 24 107 17
107 -2 0 -10 -17 -20 -37z m-755 -1403 c0 -5 -4 -10 -10 -10 -5 0 -10 5 -10
10 0 6 5 10 10 10 6 0 10 -4 10 -10z"/>
<path d="M3900 1730 c0 -5 5 -10 10 -10 6 0 10 5 10 10 0 6 -4 10 -10 10 -5 0
-10 -4 -10 -10z"/>
<path d="M4175 1680 c-3 -6 1 -13 10 -16 19 -8 30 0 20 15 -8 14 -22 14 -30 1z"/>
<path d="M1755 1655 c-152 -71 -284 -121 -410 -155 -145 -39 -267 -77 -575
-180 -80 -27 -174 -52 -210 -56 -132 -14 -299 -53 -425 -100 l-130 -49 -3
-557 -2 -558 855 0 855 0 2 43 c1 45 1 47 -8 120 -4 35 -2 47 8 47 10 0 10 2
0 8 -7 5 -18 37 -24 71 -9 47 -20 71 -45 98 -20 21 -32 42 -29 52 6 19 23 160
30 243 3 32 9 66 15 76 5 10 6 24 1 32 -4 7 -4 24 1 38 6 14 7 32 4 39 -3 8 0
24 7 36 7 12 13 49 14 81 2 43 9 68 25 89 16 22 18 31 9 37 -10 6 -10 23 -1
81 30 184 67 360 97 462 7 21 -18 22 -61 2z"/>
<path d="M1857 1643 c-13 -12 -7 -23 13 -23 11 0 20 7 20 15 0 15 -21 21 -33
8z"/>
<path d="M1820 1575 c-17 -20 -7 -29 24 -21 17 4 23 11 20 21 -8 19 -28 19
-44 0z"/>
<path d="M4290 1560 c0 -5 4 -10 9 -10 6 0 13 5 16 10 3 6 -1 10 -9 10 -9 0
-16 -4 -16 -10z"/>
<path d="M4277 1503 c-16 -15 -6 -33 18 -33 18 0 25 5 25 20 0 20 -28 28 -43
13z"/>
<path d="M1783 1415 c-9 -24 1 -27 15 -5 8 13 8 20 2 20 -6 0 -13 -7 -17 -15z"/>
<path d="M1860 1406 c0 -8 7 -16 15 -20 13 -4 14 -2 5 14 -13 23 -20 26 -20 6z"/>
<path d="M3016 1353 c-11 -11 -6 -23 9 -23 8 0 15 4 15 9 0 13 -16 22 -24 14z"/>
<path d="M3245 1350 c4 -6 11 -8 16 -5 14 9 11 15 -7 15 -8 0 -12 -5 -9 -10z"/>
<path d="M4257 1344 c-11 -11 3 -24 24 -24 12 0 19 5 17 13 -5 14 -31 21 -41
11z"/>
<path d="M3290 1320 c0 -5 5 -10 10 -10 6 0 10 5 10 10 0 6 -4 10 -10 10 -5 0
-10 -4 -10 -10z"/>
<path d="M1830 1271 c0 -5 5 -13 10 -16 6 -3 10 -2 10 4 0 5 -4 13 -10 16 -5
3 -10 2 -10 -4z"/>
<path d="M3675 1240 c-3 -5 -1 -10 4 -10 6 0 11 5 11 10 0 6 -2 10 -4 10 -3 0
-8 -4 -11 -10z"/>
<path d="M1894 1181 c1 -27 4 -47 9 -44 10 6 9 93 -1 93 -5 0 -8 -22 -8 -49z"/>
<path d="M3700 1220 c0 -5 12 -10 28 -10 21 0 24 2 12 10 -20 13 -40 13 -40 0z"/>
<path d="M4230 1185 c0 -8 7 -15 15 -15 8 0 15 4 15 9 0 5 -7 11 -15 15 -9 3
-15 0 -15 -9z"/>
<path d="M1790 1100 c0 -5 7 -10 15 -10 8 0 15 5 15 10 0 6 -7 10 -15 10 -8 0
-15 -4 -15 -10z"/>
<path d="M1870 1066 c0 -16 24 -38 33 -30 8 9 -11 44 -23 44 -6 0 -10 -6 -10
-14z"/>
<path d="M4195 1030 c-7 -12 2 -30 16 -30 12 0 12 27 0 35 -5 3 -12 1 -16 -5z"/>
<path d="M1760 940 c0 -5 5 -10 11 -10 5 0 7 5 4 10 -3 6 -8 10 -11 10 -2 0
-4 -4 -4 -10z"/>
<path d="M1840 906 c0 -7 7 -19 15 -26 12 -10 16 -9 21 3 3 9 3 21 -1 27 -9
15 -35 12 -35 -4z"/>
<path d="M4155 850 c-3 -5 -1 -10 4 -10 6 0 11 5 11 10 0 6 -2 10 -4 10 -3 0
-8 -4 -11 -10z"/>
<path d="M1720 780 c0 -5 9 -10 20 -10 11 0 20 5 20 10 0 6 -9 10 -20 10 -11
0 -20 -4 -20 -10z"/>
<path d="M1810 751 c0 -12 29 -35 36 -28 11 10 -5 37 -21 37 -8 0 -15 -4 -15
-9z"/>
<path d="M3923 735 c-3 -9 -3 -19 1 -22 7 -7 36 16 36 28 0 15 -30 10 -37 -6z"/>
<path d="M3880 661 c0 -18 18 -21 30 -6 10 13 9 15 -9 15 -11 0 -21 -4 -21 -9z"/>
<path d="M1790 606 c0 -8 7 -17 16 -20 28 -11 35 -7 24 14 -12 23 -40 27 -40
6z"/>
<path d="M3850 585 c-10 -12 -10 -19 -2 -27 16 -16 42 -2 42 22 0 24 -22 26
-40 5z"/>
<path d="M3835 489 c-10 -15 3 -25 16 -12 7 7 7 13 1 17 -6 3 -14 1 -17 -5z"/>
<path d="M1755 443 c12 -47 22 -237 13 -249 -5 -7 -8 -16 -7 -20 1 -5 -1 -21
-5 -37 -5 -17 -4 -33 4 -42 7 -8 10 -32 8 -55 l-4 -40 49 0 c26 0 46 4 43 9
-3 5 0 24 8 42 12 29 34 159 40 239 1 14 6 38 10 53 5 18 4 38 -2 53 -13 26
-102 74 -140 74 -22 0 -24 -3 -17 -27z"/>
<path d="M3800 415 c-9 -11 -10 -19 -3 -26 14 -14 43 0 43 22 0 23 -23 25 -40
4z"/>
<path d="M3780 320 c0 -5 5 -10 10 -10 6 0 10 5 10 10 0 6 -4 10 -10 10 -5 0
-10 -4 -10 -10z"/>
<path d="M3686 238 c-3 -13 -24 -35 -46 -50 -49 -34 -53 -53 -9 -44 31 6 31 5
25 -25 -3 -17 -6 -44 -6 -59 0 -22 -6 -30 -30 -39 -16 -5 -30 -12 -30 -15 0
-4 42 -6 94 -6 l94 0 8 28 c11 40 11 95 0 110 -13 18 0 27 18 13 11 -10 18 -8
35 10 32 35 26 46 -36 64 -32 9 -66 21 -75 26 -27 14 -35 11 -42 -13z m63 -67
c17 -11 7 -41 -14 -41 -18 0 -19 -17 -1 -50 13 -23 12 -25 -12 -36 -46 -19
-69 18 -37 59 7 11 11 25 8 33 -13 35 22 57 56 35z"/>
<path d="M2370 199 c0 -5 13 -9 29 -9 21 0 36 -9 55 -35 15 -19 25 -39 21 -44
-3 -5 5 -22 18 -38 13 -15 29 -38 36 -50 13 -26 51 -31 51 -8 0 8 -4 15 -8 15
-5 0 -14 17 -20 38 -6 20 -33 60 -59 87 -41 43 -55 51 -86 52 -20 1 -37 -3
-37 -8z"/>
<path d="M3846 123 c-9 -9 -7 -33 3 -33 12 0 22 28 12 34 -5 3 -11 3 -15 -1z"/>
<path d="M3601 101 c-14 -9 -12 -44 3 -45 5 -1 14 7 20 16 13 21 -3 41 -23 29z"/>
<path d="M3516 74 c-4 -11 -1 -14 11 -12 9 2 18 9 21 16 6 18 -25 15 -32 -4z"/>
<path d="M2310 20 c0 -11 5 -20 10 -20 6 0 10 9 10 20 0 11 -4 20 -10 20 -5 0
-10 -9 -10 -20z"/>
<path d="M3490 15 c-11 -13 -8 -15 18 -15 24 0 30 4 26 15 -4 8 -12 15 -19 15
-7 0 -18 -7 -25 -15z"/>
</g>
</svg>
